<svg xmlns="http://www.w3.org/2000/svg" width="24" height="24" fill="none"><path fill="currentColor" fill-rule="evenodd" d="M21.551 4.647 15.986 2.42v6.114a.75.75 0 1 1-1.5 0V2.421L8.764 4.71v13.912l2.582-1.033a.75.75 0 0 1 .557 1.393l-3.24 1.296a1.75 1.75 0 0 1-1.3 0l-6.221-2.49a1.75 1.75 0 0 1-1.1-1.624V2.79a1.75 1.75 0 0 1 2.4-1.625L7.92 3.357a.25.25 0 0 0 .186 0l6.48-2.592a1.75 1.75 0 0 1 1.3 0l6.222 2.49c.665.265 1.1.908 1.1 1.624v4.379a.75.75 0 0 1-1.5 0V4.879a.25.25 0 0 0-.157-.232zM7.264 4.71l-5.38-2.152a.25.25 0 0 0-.342.232v13.374a.25.25 0 0 0 .157.232l5.565 2.226V4.71zm10.86 7.103a3.583 3.583 0 0 0-3.582 3.583c0 .42.191 1.042.568 1.807.365.743.863 1.537 1.378 2.272a26.001 26.001 0 0 0 1.637 2.098 25.974 25.974 0 0 0 1.637-2.099c.515-.734 1.012-1.528 1.378-2.27.377-.766.568-1.388.568-1.808a3.583 3.583 0 0 0-3.583-3.583zm-5.082 3.583a5.083 5.083 0 0 1 10.166 0c0 .777-.322 1.656-.722 2.47-.412.836-.955 1.698-1.495 2.47a27.45 27.45 0 0 1-1.522 1.977 12.44 12.44 0 0 1-.557.618 3.353 3.353 0 0 1-.217.206c-.033.027-.08.065-.134.1a.783.783 0 0 1-.872 0 1.273 1.273 0 0 1-.134-.1 3.327 3.327 0 0 1-.217-.206 12.44 12.44 0 0 1-.557-.618 27.474 27.474 0 0 1-1.522-1.978c-.54-.771-1.084-1.633-1.495-2.47-.4-.813-.723-1.692-.723-2.469zm6.527 0a1.444 1.444 0 1 1-2.889 0 1.444 1.444 0 0 1 2.89 0z" clip-rule="evenodd"/></svg>