<svg xmlns="http://www.w3.org/2000/svg" width="24" height="24" fill="none"><g clip-path="url(#a)"><path fill="currentColor" fill-rule="evenodd" d="M2.162 13.064A8.313 8.313 0 1 1 17.464 6.56a8.313 8.313 0 0 1-15.302 6.503zm14.041 4.199a9.81 9.81 0 0 1-2.552 1.58c-4.988 2.12-10.75-.205-12.87-5.193C-1.337 8.663.988 2.9 5.976.78c4.988-2.119 10.75.206 12.87 5.194a9.813 9.813 0 0 1-1.581 10.228l6.517 6.518a.75.75 0 0 1-1.061 1.06l-6.517-6.517z" clip-rule="evenodd"/></g><defs><clipPath id="a"><path fill="currentColor" d="M0 0h24v24H0z"/></clipPath></defs></svg>